<svg width="16" height="16" viewBox="0 0 20 21" fill="none" xmlns="http://www.w3.org/2000/svg">
    <path
        d="M9.14676 0.3738L0.354508 9.60393C0.242142 9.72157 0.152985 9.86135 0.0921501 10.0153C0.0313154 10.1692 0 10.3342 0 10.5009C0 10.6675 0.0313154 10.8326 0.0921501 10.9865C0.152985 11.1404 0.242142 11.2802 0.354508 11.3978L9.14676 20.6279C9.61949 21.124 10.3829 21.124 10.8556 20.6279L14.5421 16.7578C14.9654 16.3134 14.9654 15.5929 14.5421 15.1485C14.1188 14.7041 13.4324 14.7041 13.0091 15.1485L10.2144 18.0823C10.0968 18.2058 9.9182 18.2058 9.80055 18.0823L2.77927 10.7115C2.66161 10.588 2.66161 10.4005 2.77927 10.277L9.80055 2.90614C9.9182 2.7827 10.0968 2.7827 10.2144 2.90614L13.0091 5.84C13.4324 6.28444 14.1188 6.28444 14.5421 5.84C14.9654 5.39556 14.9654 4.67511 14.5421 4.23067L10.856 0.361135C10.3814 -0.124428 9.61761 -0.12048 9.14676 0.3738Z"
        fill="url(#paint0_linear_91_2825)" />
    <path
        d="M9.14676 0.373811L0.354508 9.60394C0.242142 9.72158 0.152985 9.86136 0.0921501 10.0153C0.0313154 10.1692 0 10.3342 0 10.5009C0 10.6675 0.0313154 10.8326 0.0921501 10.9865C0.152985 11.1404 0.242142 11.2802 0.354508 11.3978L9.14676 20.6279C9.61949 21.124 10.3829 21.124 10.8556 20.6279L14.5421 16.7578C14.9654 16.3134 14.9654 15.5929 14.5421 15.1485C14.1188 14.7041 13.4324 14.7041 13.0091 15.1485L10.2144 18.0823C10.0968 18.2058 9.9182 18.2058 9.80055 18.0823L2.77927 10.7115C2.66161 10.588 2.66161 10.4005 2.77927 10.277L9.80055 2.90615C10.0935 2.64084 10.5715 2.10346 11.2734 1.97763C11.795 1.88429 12.3653 2.08989 12.9843 2.59445L10.8561 0.361063C10.3814 -0.124417 9.61769 -0.12047 9.14676 0.373811Z"
        fill="url(#paint1_linear_91_2825)" />
    <path
        d="M15.3934 14.2899C15.8167 14.7344 16.5031 14.7344 16.9264 14.2899L19.6457 11.4353C19.7581 11.3176 19.8473 11.1778 19.9081 11.0239C19.9689 10.87 20.0002 10.705 20.0002 10.5383C20.0002 10.3717 19.9689 10.2066 19.9081 10.0527C19.8473 9.8988 19.7581 9.75902 19.6457 9.64138L16.9028 6.77192C16.4784 6.32806 15.7918 6.32871 15.3683 6.7734C14.9449 7.21784 14.9449 7.93829 15.3683 8.38273L17.2209 10.3276C17.3386 10.4511 17.3386 10.6386 17.2209 10.7621L15.3934 12.6806C14.9701 13.125 14.9701 13.8456 15.3934 14.2899Z"
        fill="url(#paint2_linear_91_2825)" />
    <path
        d="M10.0458 13.0389C11.3569 13.0389 12.4198 11.9232 12.4198 10.5468C12.4198 9.17045 11.3569 8.05469 10.0458 8.05469C8.73473 8.05469 7.67188 9.17045 7.67188 10.5468C7.67188 11.9232 8.73473 13.0389 10.0458 13.0389Z"
        fill="url(#paint3_linear_91_2825)" />
    <defs>
        <linearGradient id="paint0_linear_91_2825" x1="922.812" y1="1.80163e-05" x2="1780.25" y2="498.387"
            gradientUnits="userSpaceOnUse">
            <stop stop-color="#4285EB" />
            <stop offset="1" stop-color="#2EC7FF" />
        </linearGradient>
        <linearGradient id="paint1_linear_91_2825" x1="1034.88" y1="1.87292e-05" x2="581.055" y2="2232.47"
            gradientUnits="userSpaceOnUse">
            <stop stop-color="#29CDFF" />
            <stop offset="0.3786" stop-color="#148EFF" />
            <stop offset="1" stop-color="#0A60FF" />
        </linearGradient>
        <linearGradient id="paint2_linear_91_2825" x1="359.984" y1="-99.7371" x2="-215.396" y2="756.72"
            gradientUnits="userSpaceOnUse">
            <stop stop-color="#FA816E" />
            <stop offset="0.41473" stop-color="#F74A5C" />
            <stop offset="1" stop-color="#F51D2C" />
        </linearGradient>
        <linearGradient id="paint3_linear_91_2825" x1="331.138" y1="-169.838" x2="135.119" y2="576.474"
            gradientUnits="userSpaceOnUse">
            <stop stop-color="#FA8E7D" />
            <stop offset="0.51264" stop-color="#F74A5C" />
            <stop offset="1" stop-color="#F51D2C" />
        </linearGradient>
    </defs>
</svg>