<svg width="61" height="18" viewBox="0 0 61 16" fill="none" xmlns="http://www.w3.org/2000/svg">
    <path
        d="M12.4196 7.07386H11.5332C11.4991 6.88447 11.4357 6.7178 11.3429 6.57386C11.2501 6.42992 11.1364 6.30777 11.0019 6.20739C10.8675 6.10701 10.7169 6.03125 10.5502 5.98011C10.3855 5.92898 10.2103 5.90341 10.0247 5.90341C9.68945 5.90341 9.38926 5.98769 9.12411 6.15625C8.86085 6.32481 8.65251 6.57197 8.49911 6.89773C8.34759 7.22348 8.27183 7.62121 8.27183 8.09091C8.27183 8.56439 8.34759 8.96402 8.49911 9.28977C8.65251 9.61553 8.8618 9.86174 9.12695 10.0284C9.3921 10.1951 9.69039 10.2784 10.0218 10.2784C10.2055 10.2784 10.3798 10.2538 10.5446 10.2045C10.7112 10.1534 10.8618 10.0786 10.9963 9.98011C11.1307 9.88163 11.2444 9.76136 11.3372 9.61932C11.4319 9.47538 11.4972 9.31061 11.5332 9.125L12.4196 9.12784C12.3722 9.41383 12.2804 9.67708 12.144 9.91761C12.0095 10.1562 11.8362 10.3627 11.6241 10.5369C11.4139 10.7093 11.1733 10.8428 10.9025 10.9375C10.6317 11.0322 10.3362 11.0795 10.0162 11.0795C9.51236 11.0795 9.0635 10.9602 8.66956 10.7216C8.27562 10.4811 7.96501 10.1373 7.73774 9.69034C7.51236 9.24337 7.39967 8.71023 7.39967 8.09091C7.39967 7.4697 7.51331 6.93655 7.74058 6.49148C7.96786 6.04451 8.27846 5.7017 8.6724 5.46307C9.06634 5.22254 9.51426 5.10227 10.0162 5.10227C10.3249 5.10227 10.6127 5.14678 10.8798 5.2358C11.1487 5.32292 11.3902 5.4517 11.6042 5.62216C11.8182 5.79072 11.9953 5.99716 12.1355 6.24148C12.2756 6.4839 12.3703 6.76136 12.4196 7.07386ZM15.2799 11.0881C14.8708 11.0881 14.5138 10.9943 14.2089 10.8068C13.9039 10.6193 13.6672 10.357 13.4986 10.0199C13.3301 9.68277 13.2458 9.28883 13.2458 8.83807C13.2458 8.38542 13.3301 7.98958 13.4986 7.65057C13.6672 7.31155 13.9039 7.0483 14.2089 6.8608C14.5138 6.6733 14.8708 6.57955 15.2799 6.57955C15.689 6.57955 16.046 6.6733 16.3509 6.8608C16.6558 7.0483 16.8926 7.31155 17.0611 7.65057C17.2297 7.98958 17.314 8.38542 17.314 8.83807C17.314 9.28883 17.2297 9.68277 17.0611 10.0199C16.8926 10.357 16.6558 10.6193 16.3509 10.8068C16.046 10.9943 15.689 11.0881 15.2799 11.0881ZM15.2827 10.375C15.5479 10.375 15.7676 10.3049 15.9418 10.1648C16.116 10.0246 16.2448 9.83807 16.3282 9.60511C16.4134 9.37216 16.456 9.11553 16.456 8.83523C16.456 8.55682 16.4134 8.30114 16.3282 8.06818C16.2448 7.83333 16.116 7.64489 15.9418 7.50284C15.7676 7.3608 15.5479 7.28977 15.2827 7.28977C15.0157 7.28977 14.7941 7.3608 14.6179 7.50284C14.4437 7.64489 14.314 7.83333 14.2287 8.06818C14.1454 8.30114 14.1037 8.55682 14.1037 8.83523C14.1037 9.11553 14.1454 9.37216 14.2287 9.60511C14.314 9.83807 14.4437 10.0246 14.6179 10.1648C14.7941 10.3049 15.0157 10.375 15.2827 10.375ZM18.3021 11V6.63636H19.1175V7.34659H19.1714C19.2623 7.10606 19.411 6.91856 19.6175 6.78409C19.8239 6.64773 20.0711 6.57955 20.3589 6.57955C20.6506 6.57955 20.8949 6.64773 21.0919 6.78409C21.2908 6.92045 21.4375 7.10795 21.5322 7.34659H21.5777C21.6819 7.11364 21.8476 6.92803 22.0748 6.78977C22.3021 6.64962 22.573 6.57955 22.8873 6.57955C23.2832 6.57955 23.6061 6.7036 23.8561 6.9517C24.108 7.19981 24.2339 7.57386 24.2339 8.07386V11H23.3845V8.15341C23.3845 7.85795 23.304 7.64394 23.143 7.51136C22.982 7.37879 22.7898 7.3125 22.5663 7.3125C22.2898 7.3125 22.0748 7.39773 21.9214 7.56818C21.768 7.73674 21.6913 7.9536 21.6913 8.21875V11H20.8447V8.09943C20.8447 7.86269 20.7709 7.67235 20.6231 7.52841C20.4754 7.38447 20.2832 7.3125 20.0464 7.3125C19.8855 7.3125 19.7368 7.35511 19.6004 7.44034C19.4659 7.52367 19.357 7.64015 19.2737 7.78977C19.1923 7.93939 19.1515 8.11269 19.1515 8.30966V11H18.3021ZM25.4124 11V6.63636H26.2619V11H25.4124ZM25.8414 5.96307C25.6937 5.96307 25.5668 5.91383 25.4607 5.81534C25.3566 5.71496 25.3045 5.59564 25.3045 5.45739C25.3045 5.31723 25.3566 5.19792 25.4607 5.09943C25.5668 4.99905 25.6937 4.94886 25.8414 4.94886C25.9891 4.94886 26.1151 4.99905 26.2192 5.09943C26.3253 5.19792 26.3783 5.31723 26.3783 5.45739C26.3783 5.59564 26.3253 5.71496 26.2192 5.81534C26.1151 5.91383 25.9891 5.96307 25.8414 5.96307ZM28.294 8.40909V11H27.4446V6.63636H28.26V7.34659H28.3139C28.4143 7.11553 28.5715 6.92992 28.7855 6.78977C29.0014 6.64962 29.2732 6.57955 29.6009 6.57955C29.8982 6.57955 30.1586 6.64205 30.3821 6.76705C30.6056 6.89015 30.7789 7.07386 30.902 7.31818C31.0251 7.5625 31.0867 7.86458 31.0867 8.22443V11H30.2372V8.3267C30.2372 8.01042 30.1548 7.76326 29.9901 7.58523C29.8253 7.4053 29.599 7.31534 29.3111 7.31534C29.1141 7.31534 28.9389 7.35795 28.7855 7.44318C28.634 7.52841 28.5137 7.65341 28.4247 7.81818C28.3376 7.98106 28.294 8.17803 28.294 8.40909ZM34.0954 12.7273C33.7488 12.7273 33.4505 12.6818 33.2005 12.5909C32.9524 12.5 32.7498 12.3797 32.5926 12.2301C32.4354 12.0805 32.318 11.9167 32.2403 11.7386L32.9704 11.4375C33.0215 11.5208 33.0897 11.6089 33.175 11.7017C33.2621 11.7964 33.3795 11.8769 33.5272 11.9432C33.6769 12.0095 33.8691 12.0426 34.1039 12.0426C34.4259 12.0426 34.692 11.964 34.9022 11.8068C35.1125 11.6515 35.2176 11.4034 35.2176 11.0625V10.2045H35.1636C35.1125 10.2973 35.0386 10.4006 34.942 10.5142C34.8473 10.6278 34.7166 10.7263 34.55 10.8097C34.3833 10.893 34.1664 10.9347 33.8994 10.9347C33.5547 10.9347 33.2441 10.8542 32.9676 10.6932C32.693 10.5303 32.4751 10.2907 32.3142 9.97443C32.1551 9.65625 32.0755 9.26515 32.0755 8.80114C32.0755 8.33712 32.1541 7.93939 32.3113 7.60795C32.4704 7.27652 32.6882 7.02273 32.9647 6.84659C33.2412 6.66856 33.5547 6.57955 33.9051 6.57955C34.1759 6.57955 34.3947 6.625 34.5613 6.71591C34.728 6.80492 34.8577 6.90909 34.9505 7.02841C35.0452 7.14773 35.1181 7.25284 35.1693 7.34375H35.2318V6.63636H36.0642V11.0966C36.0642 11.4716 35.977 11.7794 35.8028 12.0199C35.6286 12.2604 35.3928 12.4384 35.0954 12.554C34.8 12.6695 34.4666 12.7273 34.0954 12.7273ZM34.0869 10.2301C34.3312 10.2301 34.5376 10.1733 34.7062 10.0597C34.8767 9.94413 35.0055 9.77936 35.0926 9.56534C35.1816 9.34943 35.2261 9.09091 35.2261 8.78977C35.2261 8.49621 35.1825 8.23769 35.0954 8.0142C35.0083 7.79072 34.8805 7.61648 34.7119 7.49148C34.5433 7.36458 34.335 7.30114 34.0869 7.30114C33.8312 7.30114 33.6181 7.36742 33.4477 7.5C33.2772 7.63068 33.1484 7.80871 33.0613 8.03409C32.9761 8.25947 32.9335 8.51136 32.9335 8.78977C32.9335 9.07576 32.977 9.3267 33.0642 9.54261C33.1513 9.75852 33.2801 9.92708 33.4505 10.0483C33.6229 10.1695 33.835 10.2301 34.0869 10.2301ZM42.6704 7.7017L41.9006 7.83807C41.8684 7.73958 41.8172 7.64583 41.7471 7.55682C41.679 7.4678 41.5862 7.39489 41.4687 7.33807C41.3513 7.28125 41.2045 7.25284 41.0284 7.25284C40.7879 7.25284 40.5871 7.30682 40.4261 7.41477C40.2651 7.52083 40.1846 7.65814 40.1846 7.8267C40.1846 7.97254 40.2386 8.08996 40.3466 8.17898C40.4545 8.26799 40.6288 8.34091 40.8693 8.39773L41.5625 8.55682C41.964 8.64962 42.2632 8.79261 42.4602 8.9858C42.6572 9.17898 42.7557 9.42992 42.7557 9.73864C42.7557 10 42.6799 10.233 42.5284 10.4375C42.3788 10.6402 42.1695 10.7992 41.9006 10.9148C41.6335 11.0303 41.3239 11.0881 40.9716 11.0881C40.4829 11.0881 40.0843 10.9839 39.7756 10.7756C39.4668 10.5653 39.2774 10.267 39.2074 9.88068L40.0284 9.75568C40.0795 9.9697 40.1846 10.1316 40.3437 10.2415C40.5028 10.3494 40.7102 10.4034 40.9659 10.4034C41.2443 10.4034 41.4668 10.3456 41.6335 10.2301C41.8002 10.1127 41.8835 9.9697 41.8835 9.80114C41.8835 9.66477 41.8324 9.55019 41.7301 9.45739C41.6297 9.36458 41.4754 9.29451 41.267 9.24716L40.5284 9.08523C40.1212 8.99242 39.8201 8.8447 39.625 8.64205C39.4318 8.43939 39.3352 8.18277 39.3352 7.87216C39.3352 7.61458 39.4072 7.3892 39.5511 7.19602C39.6951 7.00284 39.8939 6.85227 40.1477 6.74432C40.4015 6.63447 40.6922 6.57955 41.0199 6.57955C41.4915 6.57955 41.8627 6.68182 42.1335 6.88636C42.4043 7.08902 42.5833 7.3608 42.6704 7.7017ZM45.5677 11.0881C45.1586 11.0881 44.8016 10.9943 44.4967 10.8068C44.1917 10.6193 43.955 10.357 43.7864 10.0199C43.6179 9.68277 43.5336 9.28883 43.5336 8.83807C43.5336 8.38542 43.6179 7.98958 43.7864 7.65057C43.955 7.31155 44.1917 7.0483 44.4967 6.8608C44.8016 6.6733 45.1586 6.57955 45.5677 6.57955C45.9768 6.57955 46.3338 6.6733 46.6387 6.8608C46.9436 7.0483 47.1804 7.31155 47.3489 7.65057C47.5175 7.98958 47.6018 8.38542 47.6018 8.83807C47.6018 9.28883 47.5175 9.68277 47.3489 10.0199C47.1804 10.357 46.9436 10.6193 46.6387 10.8068C46.3338 10.9943 45.9768 11.0881 45.5677 11.0881ZM45.5705 10.375C45.8357 10.375 46.0554 10.3049 46.2296 10.1648C46.4039 10.0246 46.5326 9.83807 46.616 9.60511C46.7012 9.37216 46.7438 9.11553 46.7438 8.83523C46.7438 8.55682 46.7012 8.30114 46.616 8.06818C46.5326 7.83333 46.4039 7.64489 46.2296 7.50284C46.0554 7.3608 45.8357 7.28977 45.5705 7.28977C45.3035 7.28977 45.0819 7.3608 44.9058 7.50284C44.7315 7.64489 44.6018 7.83333 44.5165 8.06818C44.4332 8.30114 44.3915 8.55682 44.3915 8.83523C44.3915 9.11553 44.4332 9.37216 44.5165 9.60511C44.6018 9.83807 44.7315 10.0246 44.9058 10.1648C45.0819 10.3049 45.3035 10.375 45.5705 10.375ZM50.428 11.0881C50.0189 11.0881 49.6619 10.9943 49.357 10.8068C49.052 10.6193 48.8153 10.357 48.6467 10.0199C48.4782 9.68277 48.3939 9.28883 48.3939 8.83807C48.3939 8.38542 48.4782 7.98958 48.6467 7.65057C48.8153 7.31155 49.052 7.0483 49.357 6.8608C49.6619 6.6733 50.0189 6.57955 50.428 6.57955C50.8371 6.57955 51.1941 6.6733 51.499 6.8608C51.8039 7.0483 52.0407 7.31155 52.2092 7.65057C52.3778 7.98958 52.4621 8.38542 52.4621 8.83807C52.4621 9.28883 52.3778 9.68277 52.2092 10.0199C52.0407 10.357 51.8039 10.6193 51.499 10.8068C51.1941 10.9943 50.8371 11.0881 50.428 11.0881ZM50.4308 10.375C50.696 10.375 50.9157 10.3049 51.0899 10.1648C51.2642 10.0246 51.393 9.83807 51.4763 9.60511C51.5615 9.37216 51.6041 9.11553 51.6041 8.83523C51.6041 8.55682 51.5615 8.30114 51.4763 8.06818C51.393 7.83333 51.2642 7.64489 51.0899 7.50284C50.9157 7.3608 50.696 7.28977 50.4308 7.28977C50.1638 7.28977 49.9422 7.3608 49.7661 7.50284C49.5918 7.64489 49.4621 7.83333 49.3769 8.06818C49.2935 8.30114 49.2519 8.55682 49.2519 8.83523C49.2519 9.11553 49.2935 9.37216 49.3769 9.60511C49.4621 9.83807 49.5918 10.0246 49.7661 10.1648C49.9422 10.3049 50.1638 10.375 50.4308 10.375ZM54.2997 8.40909V11H53.4502V6.63636H54.2656V7.34659H54.3196C54.4199 7.11553 54.5771 6.92992 54.7912 6.78977C55.0071 6.64962 55.2788 6.57955 55.6065 6.57955C55.9038 6.57955 56.1643 6.64205 56.3877 6.76705C56.6112 6.89015 56.7845 7.07386 56.9076 7.31818C57.0307 7.5625 57.0923 7.86458 57.0923 8.22443V11H56.2429V8.3267C56.2429 8.01042 56.1605 7.76326 55.9957 7.58523C55.8309 7.4053 55.6046 7.31534 55.3167 7.31534C55.1197 7.31534 54.9446 7.35795 54.7912 7.44318C54.6396 7.52841 54.5194 7.65341 54.4304 7.81818C54.3432 7.98106 54.2997 8.17803 54.2997 8.40909ZM59.3425 5.18182L59.2687 9.3267H58.4817L58.4079 5.18182H59.3425ZM58.8766 11.054C58.7194 11.054 58.5849 10.9991 58.4732 10.8892C58.3615 10.7775 58.3065 10.643 58.3084 10.4858C58.3065 10.3305 58.3615 10.1979 58.4732 10.0881C58.5849 9.97633 58.7194 9.92045 58.8766 9.92045C59.03 9.92045 59.1626 9.97633 59.2743 10.0881C59.3861 10.1979 59.4429 10.3305 59.4448 10.4858C59.4429 10.59 59.4154 10.6856 59.3624 10.7727C59.3113 10.858 59.2431 10.9261 59.1579 10.9773C59.0726 11.0284 58.9789 11.054 58.8766 11.054Z"
        fill="#A7A7A7" fill-opacity="0.8" />
    <path d="M1.66667 9.09091H0L2.33333 4V6.90909H4L1.66667 12V9.09091Z" fill="#FFC300" />
</svg>